<svg xmlns="http://www.w3.org/2000/svg" viewBox="0 0 1400 430" role="img">
<defs>
  <linearGradient id="bg" x1="0" y1="0" x2="1" y2="1"><stop stop-color="#04171c"/><stop offset=".52" stop-color="#071f2d"/><stop offset="1" stop-color="#15133b"/></linearGradient>
  <linearGradient id="aurora" x1="0" y1="0" x2="1" y2="0"><stop stop-color="#2dd4bf"/><stop offset=".5" stop-color="#60a5fa"/><stop offset="1" stop-color="#c084fc"/></linearGradient>
  <filter id="glow"><feGaussianBlur stdDeviation="5" result="b"/><feMerge><feMergeNode in="b"/><feMergeNode in="SourceGraphic"/></feMerge></filter>
</defs>

<style>
  .bg{fill:url(#bg)} .grid{stroke:#1f5261;stroke-width:1;opacity:.45}
  .title{font:700 45px 'Segoe UI',Arial;fill:#f2fbff;letter-spacing:1px}
  .subtitle{font:500 18px 'Segoe UI',Arial;fill:#9cc6d2}
  .label{font:700 16px 'Segoe UI',Arial;fill:#e8fbff}
  .small{font:500 13px 'Segoe UI',Arial;fill:#8db6c2}
  .card{fill:#0a2830;stroke:#2dd4bf;stroke-width:2}
  .card2{fill:#101d42;stroke:#60a5fa;stroke-width:2}
  .line{fill:none;stroke:#2dd4bf;stroke-width:3;stroke-linecap:round}
  .line2{fill:none;stroke:#c084fc;stroke-width:3;stroke-linecap:round}
  .pulse{animation:pulse 2.7s ease-in-out infinite;transform-origin:center}
  .float{animation:float 4.8s ease-in-out infinite;transform-origin:center}
  .spin{animation:spin 13s linear infinite;transform-origin:center}
  .dash{stroke-dasharray:12 14;animation:dash 5s linear infinite}
  .glow{filter:url(#glow)}
  .delay1{animation-delay:-.7s}.delay2{animation-delay:-1.4s}.delay3{animation-delay:-2.1s}
  @keyframes pulse{0%,100%{opacity:.58;transform:scale(.96)}50%{opacity:1;transform:scale(1.04)}}
  @keyframes float{0%,100%{transform:translateY(0)}50%{transform:translateY(-12px)}}
  @keyframes spin{to{transform:rotate(360deg)}}
  @keyframes dash{to{stroke-dashoffset:-104}}
  @media (prefers-reduced-motion:reduce){.pulse,.float,.spin,.dash{animation:none!important}}
</style>
<rect width="1400" height="430" class="bg"/><path d="M0 0V430 M70 0V430 M140 0V430 M210 0V430 M280 0V430 M350 0V430 M420 0V430 M490 0V430 M560 0V430 M630 0V430 M700 0V430 M770 0V430 M840 0V430 M910 0V430 M980 0V430 M1050 0V430 M1120 0V430 M1190 0V430 M1260 0V430 M1330 0V430 M1400 0V430 M0 0H1400 M0 70H1400 M0 140H1400 M0 210H1400 M0 280H1400 M0 350H1400 M0 420H1400" class="grid"/><text x="55" y="64" class="title">Verification that respects your data</text><text x="55" y="98" class="subtitle">The checker audits code in place, while the release builder stages a clean copy without runtime databases.</text>
    <g class="float"><rect x="70" y="155" width="410" height="190" rx="28" class="card"/><text x="105" y="205" class="label">WORKSPACE MODE</text><text x="105" y="245" class="subtitle">data/novafit.db may exist</text><text x="105" y="278" class="small">✓ verify code and tests</text><text x="105" y="306" class="small">✓ preserve the user database</text></g>
    <path d="M500 250H875" class="line dash"/><path d="M855 235l28 15-28 15" fill="#2dd4bf"/><text x="687" y="224" class="small" text-anchor="middle">clean release staging</text>
    <g class="float delay1"><rect x="900" y="155" width="410" height="190" rx="28" class="card2"/><text x="935" y="205" class="label">DISTRIBUTION MODE</text><text x="935" y="245" class="subtitle">runtime DB/log/config excluded</text><text x="935" y="278" class="small">✓ strict safety audit</text><text x="935" y="306" class="small">✓ ZIP contains only public source/demo assets</text></g>
    <rect x="350" y="370" width="700" height="42" rx="18" fill="#122a32" stroke="#34d399"/><text x="700" y="397" class="label" text-anchor="middle">Verified quality gates preserve personal data and keep releases clean.</text></svg>
